<svg width="48" height="49" viewBox="0 0 48 49" fill="none" xmlns="http://www.w3.org/2000/svg">
<path d="M42 9.47949H6C5.60218 9.47949 5.22064 9.63753 4.93934 9.91883C4.65804 10.2001 4.5 10.5817 4.5 10.9795V36.4795C4.5 37.2751 4.81607 38.0382 5.37868 38.6008C5.94129 39.1634 6.70435 39.4795 7.5 39.4795H40.5C41.2956 39.4795 42.0587 39.1634 42.6213 38.6008C43.1839 38.0382 43.5 37.2751 43.5 36.4795V10.9795C43.5 10.5817 43.342 10.2001 43.0607 9.91883C42.7794 9.63753 42.3978 9.47949 42 9.47949ZM18.5081 24.4795L7.5 34.5689V14.3901L18.5081 24.4795ZM20.7281 26.5139L22.9781 28.5857C23.2549 28.8398 23.6168 28.9807 23.9925 28.9807C24.3682 28.9807 24.7301 28.8398 25.0069 28.5857L27.2569 26.5139L38.1319 36.4795H9.85687L20.7281 26.5139ZM29.4919 24.4795L40.5 14.3882V34.5707L29.4919 24.4795Z" fill="#7E7059"/>
</svg>
