<svg width="48" height="49" viewBox="0 0 48 49" fill="none" xmlns="http://www.w3.org/2000/svg">
<path d="M43.4999 24.4792C43.4938 29.2451 41.7452 33.8443 38.5835 37.4104C35.4217 40.9765 31.0651 43.2635 26.3343 43.8404C26.2289 43.8524 26.1223 43.8418 26.0213 43.8095C25.9203 43.7772 25.8274 43.7239 25.7485 43.653C25.6697 43.5821 25.6068 43.4953 25.5639 43.3984C25.5211 43.3014 25.4992 43.1965 25.4999 43.0904V28.9792H29.9999C30.2055 28.9797 30.4091 28.9378 30.5979 28.8563C30.7866 28.7748 30.9566 28.6553 31.0973 28.5053C31.238 28.3553 31.3463 28.178 31.4156 27.9844C31.4848 27.7908 31.5135 27.585 31.4999 27.3798C31.4668 26.9941 31.2888 26.6352 31.0018 26.3754C30.7149 26.1155 30.3401 25.974 29.953 25.9792H25.4999V21.4792C25.4999 20.6836 25.816 19.9205 26.3786 19.3579C26.9412 18.7953 27.7043 18.4792 28.4999 18.4792H31.4999C31.7055 18.4797 31.9091 18.4378 32.0979 18.3563C32.2866 18.2748 32.4566 18.1553 32.5973 18.0053C32.738 17.8553 32.8463 17.678 32.9156 17.4844C32.9848 17.2908 33.0135 17.085 32.9999 16.8798C32.9667 16.4935 32.7883 16.134 32.5005 15.8741C32.2127 15.6142 31.837 15.473 31.4493 15.4792H28.4999C26.9086 15.4792 25.3825 16.1113 24.2573 17.2366C23.1321 18.3618 22.4999 19.8879 22.4999 21.4792V25.9792H17.9999C17.7943 25.9787 17.5908 26.0206 17.402 26.1021C17.2132 26.1836 17.0432 26.3031 16.9025 26.4531C16.7618 26.6031 16.6535 26.7804 16.5843 26.974C16.515 27.1676 16.4863 27.3734 16.4999 27.5786C16.5331 27.965 16.7116 28.3244 16.9994 28.5843C17.2871 28.8442 17.6628 28.9854 18.0505 28.9792H22.4999V43.0942C22.5006 43.2 22.4788 43.3048 22.4361 43.4016C22.3933 43.4985 22.3306 43.5851 22.2519 43.656C22.1733 43.7268 22.0806 43.7802 21.9798 43.8127C21.8791 43.8451 21.7726 43.8558 21.6674 43.8442C16.81 43.2527 12.3516 40.859 9.1748 37.1371C5.99801 33.4151 4.33432 28.6362 4.51304 23.7461C4.88804 13.6211 13.0893 5.38983 23.2218 4.99608C25.8451 4.89446 28.4619 5.32298 30.9158 6.25601C33.3697 7.18904 35.6101 8.6074 37.5032 10.4263C39.3963 12.2451 40.9031 14.4271 41.9334 16.8417C42.9638 19.2563 43.4966 21.8539 43.4999 24.4792Z" fill="#7E7059"/>
</svg>
