<svg width="14" height="15" viewBox="0 0 14 15" fill="none" xmlns="http://www.w3.org/2000/svg">
<path d="M11.8125 8.07773C11.6965 8.07773 11.5852 8.12382 11.5031 8.20587C11.4211 8.28792 11.375 8.3992 11.375 8.51523C11.375 8.8025 11.3184 9.08695 11.2085 9.35235C11.0986 9.61775 10.9374 9.8589 10.7343 10.062C10.5312 10.2652 10.29 10.4263 10.0246 10.5362C9.75922 10.6462 9.47477 10.7027 9.1875 10.7027C8.54127 10.7024 7.91781 10.9414 7.4375 11.3737V7.64023H9.1875C9.30353 7.64023 9.41481 7.59414 9.49686 7.51209C9.57891 7.43004 9.625 7.31876 9.625 7.20273C9.625 7.0867 9.57891 6.97542 9.49686 6.89337C9.41481 6.81132 9.30353 6.76523 9.1875 6.76523H7.4375V5.39804C7.84991 5.29156 8.20933 5.03832 8.44839 4.68579C8.68744 4.33326 8.78972 3.90565 8.73605 3.48311C8.68238 3.06056 8.47645 2.6721 8.15685 2.39053C7.83726 2.10896 7.42594 1.95361 7 1.95361C6.57406 1.95361 6.16274 2.10896 5.84315 2.39053C5.52355 2.6721 5.31762 3.06056 5.26395 3.48311C5.21028 3.90565 5.31256 4.33326 5.55161 4.68579C5.79067 5.03832 6.15009 5.29156 6.5625 5.39804V6.76523H4.8125C4.69647 6.76523 4.58519 6.81132 4.50314 6.89337C4.42109 6.97542 4.375 7.0867 4.375 7.20273C4.375 7.31876 4.42109 7.43004 4.50314 7.51209C4.58519 7.59414 4.69647 7.64023 4.8125 7.64023H6.5625V11.3737C6.08219 10.9414 5.45873 10.7024 4.8125 10.7027C4.23234 10.7027 3.67594 10.4723 3.2657 10.062C2.85547 9.65179 2.625 9.09539 2.625 8.51523C2.625 8.3992 2.57891 8.28792 2.49686 8.20587C2.41481 8.12382 2.30353 8.07773 2.1875 8.07773C2.07147 8.07773 1.96019 8.12382 1.87814 8.20587C1.79609 8.28792 1.75 8.3992 1.75 8.51523C1.75087 9.32719 2.0738 10.1056 2.64794 10.6798C3.22209 11.2539 4.00054 11.5769 4.8125 11.5777C5.27663 11.5777 5.72175 11.7621 6.04994 12.0903C6.37813 12.4185 6.5625 12.8636 6.5625 13.3277C6.5625 13.4438 6.60859 13.555 6.69064 13.6371C6.77269 13.7191 6.88397 13.7652 7 13.7652C7.11603 13.7652 7.22731 13.7191 7.30936 13.6371C7.39141 13.555 7.4375 13.4438 7.4375 13.3277C7.4375 12.8636 7.62187 12.4185 7.95006 12.0903C8.27825 11.7621 8.72337 11.5777 9.1875 11.5777C9.99946 11.5769 10.7779 11.2539 11.3521 10.6798C11.9262 10.1056 12.2491 9.32719 12.25 8.51523C12.25 8.3992 12.2039 8.28792 12.1219 8.20587C12.0398 8.12382 11.9285 8.07773 11.8125 8.07773ZM6.125 3.70273C6.125 3.52967 6.17632 3.3605 6.27246 3.21661C6.36861 3.07271 6.50527 2.96056 6.66515 2.89434C6.82504 2.82811 7.00097 2.81078 7.1707 2.84454C7.34044 2.87831 7.49635 2.96164 7.61872 3.08401C7.74109 3.20638 7.82443 3.36229 7.85819 3.53203C7.89195 3.70176 7.87462 3.87769 7.80839 4.03758C7.74217 4.19746 7.63002 4.33412 7.48612 4.43027C7.34223 4.52641 7.17306 4.57773 7 4.57773C6.76794 4.57773 6.54538 4.48554 6.38128 4.32145C6.21719 4.15735 6.125 3.9348 6.125 3.70273Z" fill="#525AA4"/>
</svg>
