<svg width="16" height="17" viewBox="0 0 16 17" fill="none" xmlns="http://www.w3.org/2000/svg">
<g id="icon/User">
<path id="Vector" d="M14.4329 13.8904C13.481 12.2447 12.0142 11.0647 10.3023 10.5054C11.1491 10.0013 11.8069 9.23317 12.1749 8.31899C12.5429 7.40482 12.6006 6.39512 12.3392 5.44497C12.0778 4.49482 11.5117 3.65674 10.7279 3.05945C9.94408 2.46216 8.98587 2.13867 8.00041 2.13867C7.01496 2.13867 6.05675 2.46216 5.27293 3.05945C4.48911 3.65674 3.92304 4.49482 3.66163 5.44497C3.40022 6.39512 3.45793 7.40482 3.82591 8.31899C4.19388 9.23317 4.85177 10.0013 5.69854 10.5054C3.98666 11.0641 2.51979 12.2441 1.56791 13.8904C1.53301 13.9473 1.50985 14.0106 1.49982 14.0766C1.48978 14.1426 1.49307 14.21 1.50949 14.2747C1.52591 14.3394 1.55512 14.4002 1.59541 14.4535C1.63569 14.5067 1.68624 14.5513 1.74405 14.5847C1.80187 14.6181 1.86579 14.6396 1.93204 14.6479C1.9983 14.6562 2.06554 14.6511 2.1298 14.633C2.19407 14.6149 2.25405 14.5841 2.30622 14.5424C2.35838 14.5007 2.40168 14.449 2.43354 14.3904C3.61104 12.3554 5.69229 11.1404 8.00041 11.1404C10.3085 11.1404 12.3898 12.3554 13.5673 14.3904C13.5992 14.449 13.6424 14.5007 13.6946 14.5424C13.7468 14.5841 13.8068 14.6149 13.871 14.633C13.9353 14.6511 14.0025 14.6562 14.0688 14.6479C14.135 14.6396 14.199 14.6181 14.2568 14.5847C14.3146 14.5513 14.3651 14.5067 14.4054 14.4535C14.4457 14.4002 14.4749 14.3394 14.4913 14.2747C14.5078 14.21 14.511 14.1426 14.501 14.0766C14.491 14.0106 14.4678 13.9473 14.4329 13.8904ZM4.50041 6.64037C4.50041 5.94814 4.70568 5.27145 5.09027 4.69588C5.47485 4.1203 6.02148 3.6717 6.66102 3.40679C7.30056 3.14189 8.0043 3.07258 8.68323 3.20762C9.36216 3.34267 9.9858 3.67601 10.4753 4.1655C10.9648 4.65498 11.2981 5.27862 11.4332 5.95756C11.5682 6.63649 11.4989 7.34022 11.234 7.97976C10.9691 8.61931 10.5205 9.16593 9.94491 9.55052C9.36934 9.9351 8.69265 10.1404 8.00041 10.1404C7.07246 10.1394 6.1828 9.77031 5.52664 9.11415C4.87047 8.45799 4.50141 7.56833 4.50041 6.64037Z" fill="#47515F"/>
</g>
</svg>
