<svg width="16" height="17" viewBox="0 0 16 17" fill="none" xmlns="http://www.w3.org/2000/svg">
<g id="icon/Lighthouse">
<path id="Vector" d="M13 5.64038C12.8674 5.64038 12.7402 5.69305 12.6464 5.78682C12.5527 5.88059 12.5 6.00777 12.5 6.14038V7.14038H11.8031L11.5 4.09038C11.4872 3.96478 11.4274 3.84868 11.3325 3.76538L8.6525 1.38288L8.64 1.37225C8.46031 1.22258 8.23385 1.14062 8 1.14062C7.76615 1.14062 7.53969 1.22258 7.36 1.37225L7.3475 1.38288L4.6675 3.76538C4.57264 3.84868 4.5128 3.96478 4.5 4.09038L4.19688 7.14038H3.5V6.14038C3.5 6.00777 3.44732 5.88059 3.35355 5.78682C3.25979 5.69305 3.13261 5.64038 3 5.64038C2.86739 5.64038 2.74021 5.69305 2.64645 5.78682C2.55268 5.88059 2.5 6.00777 2.5 6.14038V7.64038C2.5 7.77298 2.55268 7.90016 2.64645 7.99393C2.74021 8.0877 2.86739 8.14038 3 8.14038H4.09625L3.50437 14.0454C3.49114 14.1841 3.50704 14.324 3.55105 14.4563C3.59507 14.5885 3.66623 14.71 3.75997 14.8131C3.85371 14.9162 3.96797 14.9986 4.09541 15.0549C4.22284 15.1113 4.36066 15.1404 4.5 15.1404H11.5C11.6395 15.1403 11.7775 15.1111 11.905 15.0546C12.0326 14.998 12.1469 14.9154 12.2406 14.812C12.3343 14.7087 12.4054 14.5868 12.4492 14.4544C12.493 14.3219 12.5086 14.1817 12.495 14.0429L11.9038 8.14038H13C13.1326 8.14038 13.2598 8.0877 13.3536 7.99393C13.4473 7.90016 13.5 7.77298 13.5 7.64038V6.14038C13.5 6.00777 13.4473 5.88059 13.3536 5.78682C13.2598 5.69305 13.1326 5.64038 13 5.64038ZM8 2.14038L9.6875 3.64038H6.3125L8 2.14038ZM5.4525 4.64038H10.5475L10.7975 7.14038H8.5V6.14038C8.5 6.00777 8.44732 5.88059 8.35355 5.78682C8.25979 5.69305 8.13261 5.64038 8 5.64038C7.86739 5.64038 7.74021 5.69305 7.64645 5.78682C7.55268 5.88059 7.5 6.00777 7.5 6.14038V7.14038H5.20188L5.4525 4.64038ZM4.5 14.1404L4.75 11.6404H11.25L11.5 14.1404H4.5ZM11.1494 10.6404H4.85063L5.10063 8.14038H10.8981L11.1494 10.6404Z" fill="#47515F"/>
</g>
</svg>
