<svg width="48" height="49" viewBox="0 0 48 49" fill="none" xmlns="http://www.w3.org/2000/svg">
<path d="M33 4.97949H15C12.2161 4.98247 9.54715 6.08967 7.57867 8.05816C5.61018 10.0266 4.50298 12.6956 4.5 15.4795V33.4795C4.50298 36.2634 5.61018 38.9323 7.57867 40.9008C9.54715 42.8693 12.2161 43.9765 15 43.9795H33C35.7839 43.9765 38.4528 42.8693 40.4213 40.9008C42.3898 38.9323 43.497 36.2634 43.5 33.4795V15.4795C43.497 12.6956 42.3898 10.0266 40.4213 8.05816C38.4528 6.08967 35.7839 4.98247 33 4.97949ZM24 33.4795C22.22 33.4795 20.4799 32.9517 18.9999 31.9627C17.5198 30.9738 16.3663 29.5682 15.6851 27.9236C15.0039 26.2791 14.8257 24.4695 15.1729 22.7237C15.5202 20.9779 16.3774 19.3742 17.636 18.1155C18.8947 16.8569 20.4984 15.9997 22.2442 15.6524C23.99 15.3052 25.7996 15.4834 27.4442 16.1646C29.0887 16.8458 30.4943 17.9993 31.4832 19.4794C32.4722 20.9594 33 22.6995 33 24.4795C32.9975 26.8657 32.0485 29.1534 30.3612 30.8407C28.6739 32.528 26.3862 33.477 24 33.4795ZM35.25 15.4795C34.805 15.4795 34.37 15.3475 34 15.1003C33.63 14.8531 33.3416 14.5017 33.1713 14.0905C33.001 13.6794 32.9564 13.227 33.0432 12.7905C33.13 12.3541 33.3443 11.9532 33.659 11.6385C33.9737 11.3238 34.3746 11.1095 34.811 11.0227C35.2475 10.9359 35.6999 10.9805 36.111 11.1508C36.5222 11.3211 36.8736 11.6094 37.1208 11.9795C37.368 12.3495 37.5 12.7845 37.5 13.2295C37.5 13.8262 37.2629 14.3985 36.841 14.8205C36.419 15.2424 35.8467 15.4795 35.25 15.4795ZM30 24.4795C30 25.6662 29.6481 26.8262 28.9888 27.8129C28.3295 28.7996 27.3925 29.5686 26.2961 30.0228C25.1997 30.4769 23.9933 30.5957 22.8295 30.3642C21.6656 30.1327 20.5965 29.5612 19.7574 28.7221C18.9182 27.883 18.3468 26.8139 18.1153 25.65C17.8838 24.4861 18.0026 23.2797 18.4567 22.1834C18.9108 21.087 19.6799 20.15 20.6666 19.4907C21.6533 18.8314 22.8133 18.4795 24 18.4795C25.5913 18.4795 27.1174 19.1116 28.2426 20.2369C29.3679 21.3621 30 22.8882 30 24.4795Z" fill="#7E7059"/>
</svg>
