<svg width="48" height="49" viewBox="0 0 48 49" fill="none" xmlns="http://www.w3.org/2000/svg">
<path d="M40.5 4.97949H7.5C6.70435 4.97949 5.94129 5.29556 5.37868 5.85817C4.81607 6.42078 4.5 7.18384 4.5 7.97949V40.9795C4.5 41.7751 4.81607 42.5382 5.37868 43.1008C5.94129 43.6634 6.70435 43.9795 7.5 43.9795H40.5C41.2956 43.9795 42.0587 43.6634 42.6213 43.1008C43.1839 42.5382 43.5 41.7751 43.5 40.9795V7.97949C43.5 7.18384 43.1839 6.42078 42.6213 5.85817C42.0587 5.29556 41.2956 4.97949 40.5 4.97949ZM18 33.4795C18 33.8773 17.842 34.2588 17.5607 34.5402C17.2794 34.8215 16.8978 34.9795 16.5 34.9795C16.1022 34.9795 15.7206 34.8215 15.4393 34.5402C15.158 34.2588 15 33.8773 15 33.4795V21.4795C15 21.0817 15.158 20.7001 15.4393 20.4188C15.7206 20.1375 16.1022 19.9795 16.5 19.9795C16.8978 19.9795 17.2794 20.1375 17.5607 20.4188C17.842 20.7001 18 21.0817 18 21.4795V33.4795ZM16.5 18.4795C16.055 18.4795 15.62 18.3475 15.25 18.1003C14.88 17.8531 14.5916 17.5017 14.4213 17.0905C14.251 16.6794 14.2064 16.227 14.2932 15.7905C14.38 15.3541 14.5943 14.9532 14.909 14.6385C15.2237 14.3238 15.6246 14.1095 16.061 14.0227C16.4975 13.9359 16.9499 13.9805 17.361 14.1508C17.7722 14.3211 18.1236 14.6094 18.3708 14.9795C18.618 15.3495 18.75 15.7845 18.75 16.2295C18.75 16.8262 18.5129 17.3985 18.091 17.8205C17.669 18.2424 17.0967 18.4795 16.5 18.4795ZM34.5 33.4795C34.5 33.8773 34.342 34.2588 34.0607 34.5402C33.7794 34.8215 33.3978 34.9795 33 34.9795C32.6022 34.9795 32.2206 34.8215 31.9393 34.5402C31.658 34.2588 31.5 33.8773 31.5 33.4795V26.7295C31.5 25.7349 31.1049 24.7811 30.4017 24.0778C29.6984 23.3746 28.7446 22.9795 27.75 22.9795C26.7554 22.9795 25.8016 23.3746 25.0983 24.0778C24.3951 24.7811 24 25.7349 24 26.7295V33.4795C24 33.8773 23.842 34.2588 23.5607 34.5402C23.2794 34.8215 22.8978 34.9795 22.5 34.9795C22.1022 34.9795 21.7206 34.8215 21.4393 34.5402C21.158 34.2588 21 33.8773 21 33.4795V21.4795C21.0019 21.1121 21.1385 20.7581 21.384 20.4848C21.6295 20.2114 21.9668 20.0377 22.332 19.9965C22.6971 19.9554 23.0646 20.0497 23.3648 20.2615C23.665 20.4733 23.877 20.788 23.9606 21.1457C24.9753 20.4574 26.1584 20.0584 27.3828 19.9917C28.6071 19.925 29.8265 20.1931 30.91 20.7671C31.9936 21.3411 32.9002 22.1995 33.5327 23.2499C34.1652 24.3004 34.4996 25.5033 34.5 26.7295V33.4795Z" fill="#7E7059"/>
</svg>
