<svg width="48" height="49" viewBox="0 0 48 49" fill="none" xmlns="http://www.w3.org/2000/svg">
<path d="M25.5 24.4795C25.5 26.8529 24.7962 29.1729 23.4776 31.1463C22.1591 33.1197 20.2849 34.6578 18.0922 35.566C15.8995 36.4743 13.4867 36.7119 11.1589 36.2489C8.83115 35.7859 6.69295 34.643 5.01472 32.9648C3.33649 31.2865 2.1936 29.1483 1.73058 26.8206C1.26756 24.4928 1.5052 22.08 2.41345 19.8873C3.3217 17.6946 4.85977 15.8204 6.83316 14.5019C8.80655 13.1833 11.1266 12.4795 13.5 12.4795C16.6815 12.483 19.7318 13.7484 21.9814 15.998C24.2311 18.2477 25.4965 21.298 25.5 24.4795ZM34.5 12.4795C33.435 12.4795 31.425 12.997 29.94 16.4639C29.0119 18.6295 28.5 21.4795 28.5 24.4795C28.5 27.4795 29.0119 30.3295 29.94 32.4951C31.425 35.962 33.435 36.4795 34.5 36.4795C35.565 36.4795 37.575 35.962 39.06 32.4951C39.9881 30.3295 40.5 27.4795 40.5 24.4795C40.5 21.4795 39.9881 18.6295 39.06 16.4639C37.575 12.997 35.565 12.4795 34.5 12.4795ZM45 12.4795C44.6022 12.4795 44.2206 12.6375 43.9393 12.9188C43.658 13.2001 43.5 13.5817 43.5 13.9795V34.9795C43.5 35.3773 43.658 35.7589 43.9393 36.0402C44.2206 36.3215 44.6022 36.4795 45 36.4795C45.3978 36.4795 45.7794 36.3215 46.0607 36.0402C46.342 35.7589 46.5 35.3773 46.5 34.9795V13.9795C46.5 13.5817 46.342 13.2001 46.0607 12.9188C45.7794 12.6375 45.3978 12.4795 45 12.4795Z" fill="#7E7059"/>
</svg>
