<svg viewBox="0 0 24 24" fill="none" xmlns="http://www.w3.org/2000/svg">
    <path d="M13.125 17.5151C13.125 17.7376 13.059 17.9551 12.9354 18.1402C12.8118 18.3252 12.6361 18.4694 12.4305 18.5545C12.225 18.6396 11.9988 18.6619 11.7805 18.6185C11.5623 18.5751 11.3618 18.468 11.2045 18.3106C11.0472 18.1533 10.94 17.9528 10.8966 17.7346C10.8532 17.5164 10.8755 17.2902 10.9606 17.0846C11.0458 16.8791 11.19 16.7034 11.375 16.5797C11.56 16.4561 11.7775 16.3901 12 16.3901C12.2984 16.3901 12.5845 16.5087 12.7955 16.7196C13.0065 16.9306 13.125 17.2168 13.125 17.5151ZM12 7.39014C9.93188 7.39014 8.25 8.9042 8.25 10.7651V11.1401C8.25 11.339 8.32902 11.5298 8.46967 11.6705C8.61033 11.8111 8.80109 11.8901 9 11.8901C9.19892 11.8901 9.38968 11.8111 9.53033 11.6705C9.67099 11.5298 9.75 11.339 9.75 11.1401V10.7651C9.75 9.73389 10.7597 8.89014 12 8.89014C13.2403 8.89014 14.25 9.73389 14.25 10.7651C14.25 11.7964 13.2403 12.6401 12 12.6401C11.8011 12.6401 11.6103 12.7192 11.4697 12.8598C11.329 13.0005 11.25 13.1912 11.25 13.3901V14.1401C11.25 14.339 11.329 14.5298 11.4697 14.6705C11.6103 14.8111 11.8011 14.8901 12 14.8901C12.1989 14.8901 12.3897 14.8111 12.5303 14.6705C12.671 14.5298 12.75 14.339 12.75 14.1401V14.0726C14.46 13.7586 15.75 12.3945 15.75 10.7651C15.75 8.9042 14.0681 7.39014 12 7.39014ZM21.75 12.6401C21.75 14.5685 21.1782 16.4536 20.1068 18.0569C19.0355 19.6603 17.5127 20.91 15.7312 21.648C13.9496 22.3859 11.9892 22.579 10.0979 22.2028C8.20656 21.8266 6.46928 20.898 5.10571 19.5344C3.74215 18.1709 2.81355 16.4336 2.43735 14.5423C2.06114 12.651 2.25422 10.6906 2.99218 8.90897C3.73013 7.12739 4.97982 5.60465 6.58319 4.53331C8.18657 3.46196 10.0716 2.89014 12 2.89014C14.585 2.89287 17.0634 3.92097 18.8913 5.74886C20.7192 7.57675 21.7473 10.0551 21.75 12.6401ZM20.25 12.6401C20.25 11.0084 19.7661 9.41339 18.8596 8.05668C17.9531 6.69998 16.6646 5.64255 15.1571 5.01813C13.6497 4.39371 11.9909 4.23033 10.3905 4.54866C8.79017 4.86699 7.32016 5.65272 6.16637 6.80651C5.01259 7.96029 4.22685 9.4303 3.90853 11.0306C3.5902 12.631 3.75358 14.2898 4.378 15.7973C5.00242 17.3048 6.05984 18.5932 7.41655 19.4998C8.77326 20.4063 10.3683 20.8901 12 20.8901C14.1873 20.8877 16.2843 20.0177 17.8309 18.471C19.3775 16.9244 20.2475 14.8274 20.25 12.6401Z" fill="currentColor"/>
</svg>
