<svg width="16" height="17" viewBox="0 0 16 17" fill="none" xmlns="http://www.w3.org/2000/svg">
    <g id="icon/Star">
        <path id="Vector" d="M14.6562 7.34882L11.8375 9.80882L12.6818 13.4713C12.7265 13.6628 12.7138 13.8632 12.6452 14.0474C12.5766 14.2317 12.4552 14.3916 12.2962 14.5073C12.1372 14.6229 11.9477 14.6891 11.7512 14.6976C11.5548 14.7061 11.3602 14.6566 11.1918 14.5551L7.99747 12.6176L4.80996 14.5551C4.64157 14.6566 4.447 14.7061 4.25057 14.6976C4.05415 14.6891 3.86459 14.6229 3.70559 14.5073C3.54659 14.3916 3.42521 14.2317 3.35662 14.0474C3.28803 13.8632 3.27528 13.6628 3.31996 13.4713L4.16309 9.81257L1.34372 7.34882C1.1946 7.22021 1.08677 7.05044 1.03375 6.86079C0.980734 6.67114 0.98489 6.47006 1.0457 6.28276C1.10651 6.09547 1.22126 5.93029 1.37556 5.80796C1.52987 5.68562 1.71686 5.61156 1.91309 5.59507L5.62934 5.2732L7.07997 1.8132C7.15572 1.63164 7.2835 1.47656 7.44721 1.36748C7.61092 1.2584 7.80324 1.2002 7.99997 1.2002C8.19669 1.2002 8.38901 1.2584 8.55272 1.36748C8.71643 1.47656 8.84421 1.63164 8.91997 1.8132L10.375 5.2732L14.09 5.59507C14.2862 5.61156 14.4732 5.68562 14.6275 5.80796C14.7818 5.93029 14.8966 6.09547 14.9574 6.28276C15.0182 6.47006 15.0223 6.67114 14.9693 6.86079C14.9163 7.05044 14.8085 7.22021 14.6593 7.34882H14.6562Z" fill="#FFCF40"/>
    </g>
</svg>
